<?xml version="1.0" encoding="utf-8"?>
<!-- Generator: Adobe Illustrator 16.0.0, SVG Export Plug-In . SVG Version: 6.00 Build 0)  -->
<!DOCTYPE svg PUBLIC "-//W3C//DTD SVG 1.1//EN" "http://www.w3.org/Graphics/SVG/1.1/DTD/svg11.dtd">
<svg version="1.1" xmlns="http://www.w3.org/2000/svg" xmlns:xlink="http://www.w3.org/1999/xlink" x="0px" y="0px" width="400px"
	 height="100px" viewBox="0 0 400 100" enable-background="new 0 0 400 100" xml:space="preserve">
<g id="schrift" display="none">
	
		<text transform="matrix(1 0 0 1 8.1401 82.9219)" display="inline" fill="#002E35" font-family="'AmericanCaptain'" font-size="89.0061" letter-spacing="13">ISARCAMP</text>
	
		<text transform="matrix(1 0 0 1 11.1401 79.9219)" display="inline" fill="#E2E2E2" font-family="'AmericanCaptain'" font-size="89.0061" letter-spacing="13">ISARCAMP</text>
</g>
<g id="objekt">
	<g>
		<path fill="#002E35" d="M10.811,18.393h12.906v64.529H10.811V18.393z"/>
		<path fill="#002E35" d="M45.433,82.922l-2.314-12.016h13.885c1.008,0,1.513-0.445,1.513-1.335V57.822
			c0-0.891-0.178-1.424-0.534-1.603c-0.356-0.178-0.979-0.267-1.869-0.267h-6.675c-0.95,0-1.855-0.074-2.715-0.223
			c-0.861-0.147-1.633-0.489-2.314-1.023c-0.683-0.534-1.217-1.275-1.603-2.226c-0.386-0.948-0.578-2.225-0.578-3.827V26.759
			c0-2.55,0.696-4.583,2.091-6.097c1.394-1.513,3.605-2.27,6.631-2.27h17.801l2.225,12.016H56.38c-1.068,0-1.602,0.476-1.602,1.424
			v11.749c0,0.654,0.163,1.099,0.489,1.335c0.326,0.238,0.815,0.356,1.469,0.356h8.1c2.076,0,3.663,0.489,4.762,1.468
			c1.097,0.979,1.646,2.687,1.646,5.118v21.272c0,3.561-0.727,6.083-2.181,7.565c-1.455,1.484-4.021,2.226-7.699,2.226H45.433z"/>
		<path fill="#002E35" d="M101.506,74.911l-1.157,8.011H87.354l11.66-64.529h13.796l11.66,64.529h-12.995l-1.157-8.011H101.506z
			 M102.931,64.676h5.963l-2.938-22.875L102.931,64.676z"/>
		<path fill="#002E35" d="M174.402,56.665c0,1.424-0.49,2.73-1.469,3.916c-0.979,1.188-2.418,1.78-4.317,1.78l6.765,20.561H162.03
			l-6.23-20.561h-1.691v20.561h-12.906V18.393h24.477c3.026,0,5.236,0.756,6.631,2.27c1.394,1.513,2.092,3.546,2.092,6.097V56.665z
			 M154.108,29.696v22.251h6.319c0.83,0,1.246-0.444,1.246-1.335V31.031c0-0.89-0.416-1.335-1.246-1.335H154.108z"/>
		<path fill="#002E35" d="M203.15,82.922c-3.738,0-6.35-0.771-7.832-2.314c-1.484-1.542-2.225-4.094-2.225-7.654V26.314
			c0-2.551,0.726-4.509,2.181-5.875c1.453-1.364,3.249-2.047,5.384-2.047h17.001l2.225,12.016h-12.372
			c-0.771,0-1.157,0.416-1.157,1.246V69.66c0,0.831,0.386,1.246,1.157,1.246h12.372l-2.314,12.016H203.15z"/>
		<path fill="#002E35" d="M249.879,74.911l-1.157,8.011h-12.995l11.66-64.529h13.796l11.66,64.529h-12.995l-1.157-8.011H249.879z
			 M251.303,64.676h5.964l-2.938-22.875L251.303,64.676z"/>
		<path fill="#002E35" d="M302.124,52.481v30.44h-12.55V18.393h13.618l7.031,27.236l7.032-27.236h13.706v64.529h-12.55v-30.44
			l-8.188,25.813L302.124,52.481z"/>
		<path fill="#002E35" d="M374.843,18.393c2.551,0,4.464,0.712,5.74,2.136c1.275,1.424,1.914,3.324,1.914,5.696V57.11
			c0,1.246-0.134,2.389-0.4,3.427c-0.268,1.039-0.757,1.944-1.469,2.715c-0.712,0.771-1.662,1.379-2.848,1.824
			c-1.188,0.445-2.671,0.668-4.451,0.668h-11.036v17.178h-12.817V18.393H374.843z M362.293,29.696v25.366h6.408
			c0.534,0,0.875-0.103,1.023-0.312c0.147-0.207,0.223-0.548,0.223-1.023V30.942c0-0.831-0.387-1.246-1.157-1.246H362.293z"/>
	</g>
	<g>
		<path fill="#E2E2E2" d="M13.811,15.393h12.906v64.529H13.811V15.393z"/>
		<path fill="#E2E2E2" d="M48.433,79.922l-2.314-12.016h13.885c1.008,0,1.513-0.445,1.513-1.335V54.822
			c0-0.891-0.178-1.424-0.534-1.603c-0.356-0.178-0.979-0.267-1.869-0.267h-6.675c-0.95,0-1.855-0.074-2.715-0.223
			c-0.861-0.147-1.633-0.489-2.314-1.023c-0.683-0.534-1.217-1.275-1.603-2.226c-0.386-0.948-0.578-2.225-0.578-3.827V23.759
			c0-2.55,0.696-4.583,2.091-6.097c1.394-1.513,3.605-2.27,6.631-2.27h17.801l2.225,12.016H59.38c-1.068,0-1.602,0.476-1.602,1.424
			v11.749c0,0.654,0.163,1.099,0.489,1.335c0.326,0.238,0.815,0.356,1.469,0.356h8.1c2.076,0,3.663,0.489,4.762,1.468
			c1.097,0.979,1.646,2.687,1.646,5.118v21.272c0,3.561-0.727,6.083-2.181,7.565c-1.455,1.484-4.021,2.226-7.699,2.226H48.433z"/>
		<path fill="#E2E2E2" d="M104.506,71.911l-1.157,8.011H90.354l11.66-64.529h13.796l11.66,64.529h-12.995l-1.157-8.011H104.506z
			 M105.931,61.676h5.963l-2.938-22.875L105.931,61.676z"/>
		<path fill="#E2E2E2" d="M177.402,53.665c0,1.424-0.49,2.73-1.469,3.916c-0.979,1.188-2.418,1.78-4.317,1.78l6.765,20.561H165.03
			l-6.23-20.561h-1.691v20.561h-12.906V15.393h24.477c3.026,0,5.236,0.756,6.631,2.27c1.394,1.513,2.092,3.546,2.092,6.097V53.665z
			 M157.108,26.696v22.251h6.319c0.83,0,1.246-0.444,1.246-1.335V28.031c0-0.89-0.416-1.335-1.246-1.335H157.108z"/>
		<path fill="#E2E2E2" d="M206.15,79.922c-3.738,0-6.35-0.771-7.832-2.314c-1.484-1.542-2.225-4.094-2.225-7.654V23.314
			c0-2.551,0.726-4.509,2.181-5.875c1.453-1.364,3.249-2.047,5.384-2.047h17.001l2.225,12.016h-12.372
			c-0.771,0-1.157,0.416-1.157,1.246V66.66c0,0.831,0.386,1.246,1.157,1.246h12.372l-2.314,12.016H206.15z"/>
		<path fill="#E2E2E2" d="M252.879,71.911l-1.157,8.011h-12.995l11.66-64.529h13.796l11.66,64.529h-12.995l-1.157-8.011H252.879z
			 M254.303,61.676h5.964l-2.938-22.875L254.303,61.676z"/>
		<path fill="#E2E2E2" d="M305.124,49.481v30.44h-12.55V15.393h13.618l7.031,27.236l7.032-27.236h13.706v64.529h-12.55v-30.44
			l-8.188,25.813L305.124,49.481z"/>
		<path fill="#E2E2E2" d="M377.843,15.393c2.551,0,4.464,0.712,5.74,2.136c1.275,1.424,1.914,3.324,1.914,5.696V54.11
			c0,1.246-0.134,2.389-0.4,3.427c-0.268,1.039-0.757,1.944-1.469,2.715c-0.712,0.771-1.662,1.379-2.848,1.824
			c-1.188,0.445-2.671,0.668-4.451,0.668h-11.036v17.178h-12.817V15.393H377.843z M365.293,26.696v25.366h6.408
			c0.534,0,0.875-0.103,1.023-0.312c0.147-0.207,0.223-0.548,0.223-1.023V27.942c0-0.831-0.387-1.246-1.157-1.246H365.293z"/>
	</g>
</g>
</svg>
